<?xml version="1.0" encoding="UTF-8"?>
<svg width="32" height="32" viewBox="0 0 32 32" xmlns="http://www.w3.org/2000/svg">
    <!-- Hospital Building Base -->
    <path fill="#ffffff" d="M8 28h16V10H8v18z"/>
    <path fill="#ffffff" d="M6 28h20v2H6z"/> <!-- Foundation -->
    
    <!-- Hospital Roof -->
    <path fill="#ffffff" d="M7 10l9-8 9 8H7z"/>
    
    <!-- Windows and Door -->
    <rect x="11" y="14" width="4" height="4" fill="#2563eb"/> <!-- Left Window -->
    <rect x="17" y="14" width="4" height="4" fill="#2563eb"/> <!-- Right Window -->
    <rect x="14" y="22" width="4" height="6" fill="#2563eb"/> <!-- Door -->
    
    <!-- Medical Cross -->
    <rect x="14.5" y="3" width="3" height="7" fill="#2563eb"/> <!-- Vertical -->
    <rect x="12.5" y="5" width="7" height="3" fill="#2563eb"/> <!-- Horizontal -->
    
    <!-- Blockchain Nodes -->
    <circle cx="4" cy="20" r="1.5" fill="#ffffff"/>
    <circle cx="28" cy="20" r="1.5" fill="#ffffff"/>
    <circle cx="16" cy="28" r="1.5" fill="#ffffff"/>
    
    <!-- Connecting Lines (Blockchain) -->
    <path fill="none" stroke="#ffffff" stroke-width="1" 
          d="M4,20 C4,28 28,28 28,20" 
          opacity="0.6"/>
    <path fill="none" stroke="#ffffff" stroke-width="1" 
          d="M16,28 C4,28 4,20 16,20" 
          opacity="0.6"/>
    <path fill="none" stroke="#ffffff" stroke-width="1" 
          d="M16,28 C28,28 28,20 16,20" 
          opacity="0.6"/>
</svg>
